<svg width="1708" height="360" viewBox="0 0 1708 360" fill="none" xmlns="http://www.w3.org/2000/svg">
<path d="M8.05694 0L32.9994 3.18885e-06C33.499 52.9571 30.3777 106.742 42.025 158.812C47.6485 182.645 58.9196 208.98 83.1617 218.853C114.139 230.934 149.039 220.198 175.765 202.934C181.712 211.679 188.669 220.567 194.028 229.21C159.102 252.31 113.493 264.444 73.0396 249.27C42.1487 237.964 22.5754 208.141 13.9722 177.604C-0.640689 126.22 1.23836 72.0081 0.955078 19.1174V0H8.05694Z" fill="black"/>
<path fill-rule="evenodd" clip-rule="evenodd" d="M184.011 127.714C169.044 127.42 153.855 129.413 139.815 134.747C135.677 124.916 131.539 115.084 127.4 105.253C161.291 92.6056 200.769 91.537 233.96 106.955C259.874 118.756 278.651 142.625 287.46 169.354C303.079 215.417 302.745 264.773 302.884 312.848C302.818 326.565 302.614 340.282 302.607 354C291.941 354 281.274 354 270.607 354C270.392 301.268 273.808 247.721 261.999 195.884C256.642 172.857 245.712 148.812 223.595 137.588C211.51 130.988 197.692 128.102 184.011 127.714V127.714Z" fill="black"/>
<path d="M109.37 157.249C110.459 156.16 112.318 156.658 112.716 158.145L129.303 220.048C129.701 221.535 128.34 222.896 126.853 222.497L64.951 205.91C63.4639 205.512 62.9658 203.653 64.0544 202.564L109.37 157.249Z" fill="#02DA9A"/>
<path d="M523.9 354H559.525L688.725 13.9001H653.575L563.325 249.975C558.1 262.8 549.55 286.55 542.425 311.25C534.825 287.5 528.175 268.975 521.05 250.45L430.325 13.9001H393.75L523.9 354Z" fill="black"/>
<path d="M729.397 60.9251C742.697 60.9251 754.097 50.0001 754.097 36.7001C754.097 23.4001 742.697 12.0001 729.397 12.0001C716.097 12.0001 705.172 23.4001 705.172 36.7001C705.172 50.0001 716.097 60.9251 729.397 60.9251ZM713.247 354H746.022V124.1H713.247V354Z" fill="black"/>
<path d="M890.37 359.7C928.845 359.7 961.145 342.6 977.295 306.975L980.62 354H1009.12V7.7251H976.345V167.8C960.195 134.55 929.795 117.925 891.795 117.925C823.395 117.925 783.97 170.175 783.97 239.525C783.97 308.4 823.395 359.7 890.37 359.7ZM896.07 329.775C846.195 329.775 817.22 291.775 817.22 238.575C817.22 185.85 846.195 147.375 896.07 147.375C946.42 147.375 975.87 185.85 975.87 238.575C975.87 291.775 946.42 329.775 896.07 329.775Z" fill="black"/>
<path d="M1159.69 359.7C1213.84 359.7 1249.46 333.575 1261.81 285.125H1230.46C1221.91 315.525 1197.69 331.675 1160.16 331.675C1110.76 331.675 1081.31 299.375 1078.94 243.325H1261.81V227.175C1261.81 162.1 1219.54 117.925 1157.31 117.925C1091.76 117.925 1047.11 167.325 1047.11 239.05C1047.11 311.25 1092.24 359.7 1159.69 359.7ZM1157.31 145.95C1200.54 145.95 1229.04 175.4 1229.04 219.575H1079.89C1085.59 174.45 1114.09 145.95 1157.31 145.95Z" fill="black"/>
<path d="M1283.81 239.05C1283.81 308.875 1333.21 359.7 1400.66 359.7C1468.11 359.7 1517.51 308.875 1517.51 239.05C1517.51 168.75 1468.11 117.925 1400.66 117.925C1333.21 117.925 1283.81 168.75 1283.81 239.05ZM1317.06 238.575C1317.06 185.375 1351.26 147.375 1400.66 147.375C1449.59 147.375 1484.26 185.375 1484.26 238.575C1484.26 292.725 1449.59 330.25 1400.66 330.25C1351.26 330.25 1317.06 292.725 1317.06 238.575Z" fill="black"/>
<path d="M1536.21 289.4C1536.21 332.15 1568.51 359.7 1620.29 359.7C1672.54 359.7 1707.69 332.625 1707.69 291.3C1707.69 258.05 1689.64 239.525 1649.74 229.55L1610.31 219.575C1585.14 213.4 1572.79 201.05 1572.79 183.475C1572.79 158.775 1590.84 145 1623.14 145C1654.01 145 1672.54 160.675 1673.49 187.275H1705.31C1703.89 144.525 1672.54 117.925 1624.09 117.925C1574.69 117.925 1540.96 143.575 1540.96 183.95C1540.96 215.3 1560.44 236.2 1600.34 246.175L1639.76 256.15C1666.84 262.8 1676.34 273.725 1676.34 292.725C1676.34 317.425 1655.44 332.625 1619.81 332.625C1587.51 332.625 1567.56 316 1567.56 289.4H1536.21Z" fill="black"/>
</svg>
