<svg width="616" height="179" viewBox="0 0 616 179" fill="none" xmlns="http://www.w3.org/2000/svg">
<path d="M50.074 57.7258C53.1941 60.1277 53.1941 64.8329 50.074 67.2347L9.66019 98.3453C5.71477 101.382 0.000218052 98.5699 0.00021827 93.5909L0.00022099 31.3697C0.000221207 26.3907 5.71477 23.5781 9.66019 26.6153L50.074 57.7258Z" fill="#01A573"/>
<path d="M134.18 62.4803C134.18 77.392 122.091 89.4803 107.18 89.4803C92.268 89.4803 80.1797 77.392 80.1797 62.4803C80.1797 47.5686 92.268 35.4803 107.18 35.4803C122.091 35.4803 134.18 47.5686 134.18 62.4803Z" fill="#01A573"/>
<path d="M37.5723 152.088C33.3212 156.339 33.2777 163.337 38.2585 166.703C45.1342 171.351 52.98 174.467 61.2633 175.778C73.1523 177.662 85.3323 175.732 96.0575 170.268C106.783 164.803 115.503 156.083 120.967 145.358C124.775 137.885 126.866 129.707 127.147 121.412C127.351 115.404 121.665 111.326 115.727 112.266V112.266C109.789 113.207 105.913 118.869 105.003 124.812C104.438 128.504 103.286 132.105 101.569 135.474C98.1915 142.102 92.8022 147.492 86.1735 150.869C79.5448 154.247 72.017 155.439 64.6691 154.275C60.9345 153.684 57.3439 152.499 54.025 150.786C48.6824 148.029 41.8234 147.837 37.5723 152.088V152.088Z" fill="#01A573"/>
<path d="M211.347 176.48L173.523 82.4002H194.451L213.843 132.512C215.635 137.248 217.171 141.664 218.451 145.76C219.859 149.728 220.883 153.12 221.523 155.936C222.419 152.864 223.571 149.344 224.979 145.376C226.387 141.28 227.923 136.992 229.587 132.512L249.747 82.4002H269.907L230.547 176.48H211.347Z" fill="#01A573"/>
<path d="M278.283 176.48V82.4002H297.483V176.48H278.283ZM287.883 60.8962C284.427 60.8962 281.419 59.6802 278.859 57.2482C276.427 54.8162 275.211 51.8722 275.211 48.4162C275.211 44.9602 276.427 42.0162 278.859 39.5842C281.419 37.1522 284.427 35.9362 287.883 35.9362C291.211 35.9362 294.091 37.1522 296.523 39.5842C298.955 42.0162 300.171 44.9602 300.171 48.4162C300.171 51.8722 298.955 54.8162 296.523 57.2482C294.091 59.6802 291.211 60.8962 287.883 60.8962Z" fill="#01A573"/>
<path d="M355.539 178.976C346.451 178.976 338.579 176.864 331.923 172.64C325.395 168.416 320.339 162.656 316.755 155.36C313.171 147.936 311.379 139.36 311.379 129.632C311.379 120.032 313.171 111.456 316.755 103.904C320.339 96.3522 325.523 90.4642 332.307 86.2402C339.091 81.8882 347.155 79.7122 356.499 79.7122C363.539 79.7122 369.875 81.1842 375.507 84.1282C381.139 86.9442 385.491 91.1682 388.563 96.8002V34.7842H407.955V176.48H390.291L388.947 159.968C385.875 166.112 381.331 170.848 375.315 174.176C369.427 177.376 362.835 178.976 355.539 178.976ZM359.571 161.312C365.587 161.312 370.707 159.968 374.931 157.28C379.283 154.464 382.611 150.624 384.915 145.76C387.219 140.896 388.371 135.328 388.371 129.056C388.371 122.784 387.219 117.28 384.915 112.544C382.611 107.68 379.283 103.904 374.931 101.216C370.707 98.4002 365.587 96.9922 359.571 96.9922C353.555 96.9922 348.371 98.4002 344.019 101.216C339.795 104.032 336.531 107.872 334.227 112.736C332.051 117.472 330.963 122.912 330.963 129.056C330.963 135.328 332.051 140.896 334.227 145.76C336.531 150.624 339.795 154.464 344.019 157.28C348.371 159.968 353.555 161.312 359.571 161.312Z" fill="#01A573"/>
<path d="M465.261 178.976C456.045 178.976 447.853 176.864 440.685 172.64C433.645 168.416 428.077 162.592 423.981 155.168C420.013 147.744 418.029 139.168 418.029 129.44C418.029 119.584 419.949 110.944 423.789 103.52C427.757 96.0962 433.197 90.2722 440.109 86.0482C447.149 81.8242 455.213 79.7122 464.301 79.7122C473.389 79.7122 481.261 81.6322 487.917 85.4722C494.701 89.3122 499.885 94.7522 503.469 101.792C507.181 108.832 509.037 117.088 509.037 126.56V133.28L428.397 133.472L428.781 120.608H489.837C489.837 113.184 487.533 107.232 482.925 102.752C478.317 98.1442 472.173 95.8402 464.493 95.8402C458.605 95.8402 453.549 97.1202 449.325 99.6802C445.229 102.24 442.029 106.016 439.725 111.008C437.549 115.872 436.461 121.76 436.461 128.672C436.461 139.68 438.957 148.128 443.949 154.016C448.941 159.904 456.109 162.848 465.453 162.848C472.365 162.848 477.997 161.504 482.349 158.816C486.829 156 489.773 152.032 491.181 146.912H509.229C507.053 157.024 502.125 164.896 494.445 170.528C486.765 176.16 477.037 178.976 465.261 178.976Z" fill="#01A573"/>
<path d="M517.082 129.248C517.082 119.52 519.194 110.944 523.418 103.52C527.77 96.0962 533.658 90.2722 541.082 86.0482C548.634 81.8242 557.146 79.7122 566.618 79.7122C576.09 79.7122 584.538 81.8242 591.962 86.0482C599.386 90.2722 605.21 96.0962 609.434 103.52C613.658 110.944 615.77 119.52 615.77 129.248C615.77 138.976 613.658 147.552 609.434 154.976C605.21 162.4 599.386 168.224 591.962 172.448C584.538 176.672 576.09 178.784 566.618 178.784C557.146 178.784 548.634 176.672 541.082 172.448C533.658 168.224 527.77 162.4 523.418 154.976C519.194 147.552 517.082 138.976 517.082 129.248ZM536.666 129.248C536.666 135.52 537.946 141.088 540.506 145.952C543.066 150.816 546.586 154.656 551.066 157.472C555.546 160.16 560.73 161.504 566.618 161.504C572.506 161.504 577.626 160.16 581.978 157.472C586.458 154.656 589.978 150.816 592.538 145.952C595.098 141.088 596.378 135.52 596.378 129.248C596.378 122.848 595.098 117.28 592.538 112.544C589.978 107.68 586.458 103.904 581.978 101.216C577.626 98.5282 572.506 97.1842 566.618 97.1842C560.73 97.1842 555.546 98.5282 551.066 101.216C546.586 103.904 543.066 107.68 540.506 112.544C537.946 117.28 536.666 122.848 536.666 129.248Z" fill="#01A573"/>
<path d="M270.589 18.5957C268.243 14.5339 269.624 9.24899 274.067 7.74649C277.6 6.55177 281.285 5.81785 285.03 5.57236C291.612 5.14098 298.204 6.22942 304.298 8.75347C310.391 11.2775 315.823 15.1695 320.172 20.1284C322.646 22.9504 324.733 26.0748 326.386 29.4177C328.465 33.6218 325.705 38.3351 321.174 39.549V39.549C316.644 40.7629 312.088 37.9464 309.485 34.0445C308.853 33.0965 308.157 32.1885 307.402 31.327C304.771 28.3269 301.485 25.9721 297.798 24.4451C294.111 22.918 290.123 22.2594 286.141 22.5204C284.998 22.5954 283.864 22.7455 282.746 22.9688C278.147 23.8875 272.934 22.6574 270.589 18.5957V18.5957Z" fill="#01A573"/>
</svg>
