<svg width="616" height="180" viewBox="0 0 616 180" fill="none" xmlns="http://www.w3.org/2000/svg">
<path d="M52.1333 60.2347C54.2134 61.8359 54.2134 64.9728 52.1333 66.574L6.44077 101.748C3.8105 103.773 0.000793876 101.898 0.000794022 98.5785L0.000797097 28.2302C0.000797242 24.9109 3.8105 23.0358 6.44077 25.0606L52.1333 60.2347Z" fill="#00CC88"/>
<path d="M134.18 63.4044C134.18 78.316 122.091 90.4044 107.18 90.4044C92.268 90.4044 80.1797 78.316 80.1797 63.4044C80.1797 48.4927 92.268 36.4044 107.18 36.4044C122.091 36.4044 134.18 48.4927 134.18 63.4044Z" fill="#00CC88"/>
<path d="M32.7039 157.881C31.1418 159.443 31.1332 161.988 32.801 163.436C40.8389 170.419 50.6952 175.029 61.2638 176.703C73.1528 178.586 85.3328 176.656 96.058 171.192C106.783 165.727 115.503 157.007 120.968 146.282C125.826 136.748 127.89 126.064 126.966 115.457C126.774 113.256 124.71 111.768 122.528 112.113L108.926 114.268C106.744 114.613 105.28 116.664 105.376 118.871C105.639 124.921 104.339 130.962 101.57 136.398C98.1921 143.027 92.8028 148.416 86.1741 151.793C79.5454 155.171 72.0176 156.363 64.6696 155.199C58.6439 154.245 52.9927 151.746 48.253 147.977C46.524 146.602 44.0038 146.581 42.4417 148.143L32.7039 157.881Z" fill="#00CC88"/>
<path d="M211.347 177.404L173.523 83.3243H194.451L213.843 133.436C215.635 138.172 217.171 142.588 218.451 146.684C219.859 150.652 220.883 154.044 221.523 156.86C222.419 153.788 223.571 150.268 224.979 146.3C226.387 142.204 227.923 137.916 229.587 133.436L249.747 83.3243H269.907L230.547 177.404H211.347Z" fill="#00CC88"/>
<path d="M278.283 177.404V83.3243H297.483V177.404H278.283ZM287.883 61.8203C284.427 61.8203 281.419 60.6043 278.859 58.1723C276.427 55.7403 275.211 52.7963 275.211 49.3403C275.211 45.8843 276.427 42.9403 278.859 40.5083C281.419 38.0763 284.427 36.8603 287.883 36.8603C291.211 36.8603 294.091 38.0763 296.523 40.5083C298.955 42.9403 300.171 45.8843 300.171 49.3403C300.171 52.7963 298.955 55.7403 296.523 58.1723C294.091 60.6043 291.211 61.8203 287.883 61.8203Z" fill="#00CC88"/>
<path d="M355.539 179.9C346.451 179.9 338.579 177.788 331.923 173.564C325.395 169.34 320.339 163.58 316.755 156.284C313.171 148.86 311.379 140.284 311.379 130.556C311.379 120.956 313.171 112.38 316.755 104.828C320.339 97.2763 325.523 91.3883 332.307 87.1643C339.091 82.8123 347.155 80.6363 356.499 80.6363C363.539 80.6363 369.875 82.1083 375.507 85.0523C381.139 87.8683 385.491 92.0923 388.563 97.7243V35.7083H407.955V177.404H390.291L388.947 160.892C385.875 167.036 381.331 171.772 375.315 175.1C369.427 178.3 362.835 179.9 355.539 179.9ZM359.571 162.236C365.587 162.236 370.707 160.892 374.931 158.204C379.283 155.388 382.611 151.548 384.915 146.684C387.219 141.82 388.371 136.252 388.371 129.98C388.371 123.708 387.219 118.204 384.915 113.468C382.611 108.604 379.283 104.828 374.931 102.14C370.707 99.3243 365.587 97.9163 359.571 97.9163C353.555 97.9163 348.371 99.3243 344.019 102.14C339.795 104.956 336.531 108.796 334.227 113.66C332.051 118.396 330.963 123.836 330.963 129.98C330.963 136.252 332.051 141.82 334.227 146.684C336.531 151.548 339.795 155.388 344.019 158.204C348.371 160.892 353.555 162.236 359.571 162.236Z" fill="#00CC88"/>
<path d="M465.261 179.9C456.045 179.9 447.853 177.788 440.685 173.564C433.645 169.34 428.077 163.516 423.981 156.092C420.013 148.668 418.029 140.092 418.029 130.364C418.029 120.508 419.949 111.868 423.789 104.444C427.757 97.0203 433.197 91.1963 440.109 86.9723C447.149 82.7483 455.213 80.6363 464.301 80.6363C473.389 80.6363 481.261 82.5563 487.917 86.3963C494.701 90.2363 499.885 95.6763 503.469 102.716C507.181 109.756 509.037 118.012 509.037 127.484V134.204L428.397 134.396L428.781 121.532H489.837C489.837 114.108 487.533 108.156 482.925 103.676C478.317 99.0683 472.173 96.7643 464.493 96.7643C458.605 96.7643 453.549 98.0443 449.325 100.604C445.229 103.164 442.029 106.94 439.725 111.932C437.549 116.796 436.461 122.684 436.461 129.596C436.461 140.604 438.957 149.052 443.949 154.94C448.941 160.828 456.109 163.772 465.453 163.772C472.365 163.772 477.997 162.428 482.349 159.74C486.829 156.924 489.773 152.956 491.181 147.836H509.229C507.053 157.948 502.125 165.82 494.445 171.452C486.765 177.084 477.037 179.9 465.261 179.9Z" fill="#00CC88"/>
<path d="M517.082 130.172C517.082 120.444 519.194 111.868 523.418 104.444C527.77 97.0203 533.658 91.1963 541.082 86.9723C548.634 82.7483 557.146 80.6363 566.618 80.6363C576.09 80.6363 584.538 82.7483 591.962 86.9723C599.386 91.1963 605.21 97.0203 609.434 104.444C613.658 111.868 615.77 120.444 615.77 130.172C615.77 139.9 613.658 148.476 609.434 155.9C605.21 163.324 599.386 169.148 591.962 173.372C584.538 177.596 576.09 179.708 566.618 179.708C557.146 179.708 548.634 177.596 541.082 173.372C533.658 169.148 527.77 163.324 523.418 155.9C519.194 148.476 517.082 139.9 517.082 130.172ZM536.666 130.172C536.666 136.444 537.946 142.012 540.506 146.876C543.066 151.74 546.586 155.58 551.066 158.396C555.546 161.084 560.73 162.428 566.618 162.428C572.506 162.428 577.626 161.084 581.978 158.396C586.458 155.58 589.978 151.74 592.538 146.876C595.098 142.012 596.378 136.444 596.378 130.172C596.378 123.772 595.098 118.204 592.538 113.468C589.978 108.604 586.458 104.828 581.978 102.14C577.626 99.4523 572.506 98.1083 566.618 98.1083C560.73 98.1083 555.546 99.4523 551.066 102.14C546.586 104.828 543.066 108.604 540.506 113.468C537.946 118.204 536.666 123.772 536.666 130.172Z" fill="#00CC88"/>
<path d="M266.344 12.1653C272.056 8.86744 278.45 6.92781 285.032 6.49643C291.613 6.06505 298.206 7.15349 304.299 9.67754C310.393 12.2016 315.824 16.0936 320.173 21.0525C324.522 26.0114 327.672 31.9042 329.379 38.2751L312.973 42.671C311.94 38.8165 310.034 35.2513 307.403 32.2511C304.772 29.2509 301.486 26.8962 297.8 25.3691C294.113 23.842 290.124 23.1835 286.142 23.4445C282.16 23.7055 278.292 24.879 274.836 26.8742L266.344 12.1653Z" fill="#00CC88"/>
</svg>
